<svg width="257" height="55" viewBox="0 0 257 55" xmlns="http://www.w3.org/2000/svg"><g fill="none"><path d="M256.54533 54.53954H15.88503L0 38.6545V0h240.6603l15.88503 15.88504v38.6545zm-2.5668-37.5913L239.5971 2.5668H2.5668v35.0245l14.38144 14.38144h237.0303v-35.0245z" fill="#CADF2E"/><path d="M31.95713 35.22206c-4.1221 0-7.19173-3.362-7.19173-7.30867 0-3.9467 2.92347-7.3087 7.04555-7.3087 3.47893 0 5.17454 2.1341 5.17454 2.1341L39.3827 20.4s-2.5434-3.06964-7.5718-3.06964c-5.9931 0-10.6122 4.53137-10.6122 10.58295s4.76526 10.583 10.75837 10.583c4.9699 0 7.57177-2.5726 7.57177-2.5726V26.627h-8.098v3.2743h4.6483v4.32673s-1.1986.99398-4.12208.99398zm16.94533-11.28458c3.8005 0 6.98708 2.9527 6.98708 7.22096 0 .2631 0 .78933-.02923 1.31556h-10.349c.2631 1.22785 1.6956 2.80653 3.8882 2.80653 2.4265 0 3.8006-1.40327 3.8006-1.40327l1.7541 2.63112s-2.1926 1.98796-5.5546 1.98796c-4.2098 0-7.4548-3.2158-7.4548-7.27943 0-4.0636 2.9527-7.2794 6.9579-7.2794zm-3.39122 5.9931h6.87015c-.0585-1.19862-1.1694-2.80653-3.479-2.80653-2.2511 0-3.2743 1.57868-3.3912 2.80653zm20.4535-5.9931c-2.92347 0-4.15133 2.368-4.15133 2.368v-2.0172h-3.2742v13.85724h3.5082v-9.15045s.9355-1.7833 2.7481-1.7833c1.5202 0 2.7481.8478 2.7481 2.83575v8.098h3.5082v-8.97504c0-3.33275-2.3972-5.233-5.0868-5.233zm14.9068 0c4.1221 0 7.39638 3.18657 7.39638 7.27943 0 4.0637-3.2743 7.2795-7.39637 7.2795-4.1221 0-7.39637-3.2158-7.39637-7.2794 0-4.0928 3.27428-7.2794 7.39637-7.2794zm0 11.28458c2.368 0 3.82975-1.8418 3.82975-4.00515 0-2.1633-1.4618-4.0051-3.8298-4.0051s-3.8298 1.8418-3.8298 4.0052 1.4617 4.0052 3.8297 4.0052zm25.89905-11.28458c-3.2451 0-4.4145 2.42647-4.4145 2.42647s-.9648-2.42647-4.2975-2.42647c-2.8358 0-4.0929 2.368-4.0929 2.368v-2.0172h-3.2742v13.85724h3.5081v-9.15045s.877-1.7833 2.7188-1.7833c1.7541 0 2.4849 1.0232 2.4849 2.92345v8.0103h3.5082v-9.15045s.877-1.7833 2.7188-1.7833c1.7541 0 2.485 1.0232 2.485 2.92345v8.0103h3.5081v-8.91657c0-3.33275-2.0464-5.29147-4.853-5.29147zm14.1197 0c3.8005 0 6.9871 2.9527 6.9871 7.22096 0 .2631 0 .78933-.0293 1.31556h-10.349c.2631 1.22785 1.6956 2.80653 3.8882 2.80653 2.4265 0 3.8005-1.40327 3.8005-1.40327l1.7541 2.63112s-2.1926 1.98796-5.5546 1.98796c-4.2097 0-7.4548-3.2158-7.4548-7.27943 0-4.0636 2.9527-7.2794 6.9579-7.2794zm-3.3912 5.9931h6.8701c-.0585-1.19862-1.1694-2.80653-3.479-2.80653-2.2511 0-3.2743 1.57868-3.3912 2.80653zm22.1091 8.21494V17.68126h6.6362c3.3327 0 6.5193 1.54943 6.5193 5.84693 0 2.4849-1.8418 3.6835-2.1341 3.7712.2923.0584 3.1866 1.1109 3.1866 4.7945 0 3.5958-2.982 6.0515-6.8409 6.0515h-7.3672zm7.2502-3.33275c1.9295 0 3.3912-.78934 3.3912-2.71882 0-1.9295-1.4618-2.71883-3.3913-2.71883h-3.7421v5.43765h3.742zm-3.7421-8.7704h3.0111c1.9587 0 3.0696-.73087 3.0696-2.51418 0-1.7834-1.3448-2.5142-3.0697-2.5142h-3.0112v5.0283zm13.2788 12.10315h3.5081V24.2883h-3.5082v13.8572zm-.5555-18.33013c0 1.2863 1.0232 2.3095 2.3095 2.3095 1.2863 0 2.3095-1.0232 2.3095-2.3096s-1.0232-2.3096-2.3096-2.3096c-1.2863 0-2.3096 1.0232-2.3096 2.3095zm13.9805 4.122c4.122 0 7.3963 3.1865 7.3963 7.2794 0 4.0636-3.2743 7.2794-7.3964 7.2794s-7.3964-3.2158-7.3964-7.2795c0-4.0929 3.2742-7.2794 7.3963-7.2794zm0 11.2846c2.368 0 3.8297-1.8418 3.8297-4.0052s-1.4618-4.0052-3.8298-4.0052-3.8298 1.8418-3.8298 4.0051c0 2.1634 1.46172 4.0051 3.82973 4.0051zm10.4585 2.9234h3.5081V16.0441h-3.5082v22.1014zm13.9667-14.2081c4.1221 0 7.3964 3.1865 7.3964 7.2794 0 4.0636-3.2743 7.2794-7.3964 7.2794s-7.3964-3.2158-7.3964-7.2795c0-4.09287 3.2742-7.2794 7.3963-7.2794zm0 11.2846c2.368 0 3.8297-1.8418 3.8297-4.0052s-1.4618-4.0052-3.8298-4.0052c-2.368 0-3.82976 1.8418-3.82976 4.0052s1.4617 4.0052 3.8297 4.0052zm19.7844 1.491c-.4678.5847-1.7249 1.7833-3.9175 1.7833-3.5959 0-6.7532-3.0112-6.7532-7.2795 0-4.2682 3.1573-7.2794 6.7532-7.2794 2.8942 0 4.1805 2.1634 4.1805 2.1634v-1.8126h3.24506v13.9742c0 4.8237-3.5666 6.9578-7.4548 6.9578-3.97593 0-6.5778-2.6311-6.5778-2.6311l1.98795-2.6896s1.9295 2.0465 4.58984 2.0465c2.71882 0 3.9467-1.49096 3.9467-3.5666V36.713zm0-3.4205v-4.1513s-.994-1.9295-3.3035-1.9295c-2.368 0-3.8005 1.7248-3.8005 4.0051 0 2.2803 1.4325 4.0052 3.8005 4.0052 2.2803 0 3.3035-1.9295 3.3035-1.9295zm5.9272 10.466s1.6079 1.4617 3.7128 1.4617c2.0464 0 4.0051-.9355 5.2038-3.9759l6.7239-16.9561h-3.7713l-3.6543 10.14442-4.67758-10.14443h-3.8882l6.7532 14.1788-.55547 1.4325c-.6724 1.6956-1.1694 2.04642-2.368 2.04642-.9063 0-1.8418-.9063-1.8418-.9063l-1.63714 2.7188z" fill="#FFF"/></g></svg>