<svg xmlns="http://www.w3.org/2000/svg" width="76" height="18" viewBox="0 0 76 18"><title>logo-bmc-white-small-flagship</title><g><path d="M34.72,8.53a4.21,4.21,0,0,0,2.63-3.9,4.07,4.07,0,0,0-1.58-3.36A7.06,7.06,0,0,0,31.28,0H25V18h7.26a5.93,5.93,0,0,0,5.13-2.3,4.8,4.8,0,0,0,.83-2.8,4.1,4.1,0,0,0-1-2.8A5,5,0,0,0,34.72,8.53Zm-6.07,1.84H31.9c1.74,0,2.6.72,2.6,2.21s-.84,2.21-2.6,2.21H28.65Zm4.64-3.72a2.81,2.81,0,0,1-2,.55H28.65v-4h2.64a2.81,2.81,0,0,1,2,.52,2,2,0,0,1,.52,1.46A2,2,0,0,1,33.29,6.65Z" transform="translate(0 0)" fill="#fff"/><path d="M56.05,0H54.89L50.23,10.61,45.65,0H44.44L39.65,17.94h3.59l2.6-9.36,4,8.65h.81l4-8.65L57.18,18h3.59Z" transform="translate(0 0)" fill="#fff"/><path d="M75.16,13.49h0a7.19,7.19,0,0,1-4,1.3,5.66,5.66,0,0,1-4.25-1.61A5.84,5.84,0,0,1,65.29,9a5.78,5.78,0,0,1,1.54-4.15,5.66,5.66,0,0,1,4.25-1.61,7.19,7.19,0,0,1,4,1.27h0l.81-3.12h0A9.76,9.76,0,0,0,73.61.32,10.22,10.22,0,0,0,70.91,0a9.78,9.78,0,0,0-4.66,1.14A8.48,8.48,0,0,0,63,4.36,9,9,0,0,0,61.76,9a9.13,9.13,0,0,0,.7,3.59,8.55,8.55,0,0,0,1.93,2.86A9.51,9.51,0,0,0,70.93,18a10.06,10.06,0,0,0,2.7-.31,9.79,9.79,0,0,0,2.37-1h0l-.83-3.18Z" transform="translate(0 0)" fill="#fff"/></g><polygon points="0 0.01 17.97 0.01 17.97 17.98 0 0.01" fill="#27dfe9"/><polygon points="17.97 17.98 0 17.98 0 0.01 17.97 17.98" fill="#fff"/></svg>